<?xml version="1.0" encoding="UTF-8"?>
<svg width="300px" height="300px" viewBox="0 0 300 300" version="1.1" xmlns="http://www.w3.org/2000/svg" xmlns:xlink="http://www.w3.org/1999/xlink">
    <!-- Generator: Sketch 59.1 (86144) - https://sketch.com -->
    <title>Logo-23-StandardSDK</title>
    <desc>Created with Sketch.</desc>
    <defs>
        <path d="M167.691544,47.3223305 L252.705419,132.336205 C262.468526,142.099312 262.468526,157.928437 252.705419,167.691544 L167.691544,252.705419 C157.928437,262.468526 142.099312,262.468526 132.336205,252.705419 L47.3223305,167.691544 C37.5592232,157.928437 37.5592232,142.099312 47.3223305,132.336205 L132.336205,47.3223305 C142.099312,37.5592232 157.928437,37.5592232 167.691544,47.3223305 Z M130.507411,106 C124.165357,106 118.276394,107.032668 112.840347,109.098035 C107.4043,111.163401 102.704455,114.102533 98.7406711,117.915518 C94.776887,121.728502 91.6625318,126.355649 89.3975123,131.797096 C87.1324928,137.238543 86,143.335255 86,150.087416 C86,156.839576 87.1324928,162.995865 89.3975123,168.556468 C91.6625318,174.117071 94.776887,178.863371 98.7406711,182.795512 C102.704455,186.727652 107.4043,189.766079 112.840347,191.910883 C118.276394,194.055687 124.165357,195.128073 130.507411,195.128073 C136.849466,195.128073 142.738428,194.055687 148.174475,191.910883 C153.610522,189.766079 158.329242,186.727652 162.330776,182.795512 C166.332311,178.863371 169.465541,174.117071 171.73056,168.556468 C173.99558,162.995865 175.128073,156.839576 175.128073,150.087416 C175.128073,143.335255 173.99558,137.238543 171.73056,131.797096 C169.465541,126.355649 166.332311,121.728502 162.330776,117.915518 C158.329242,114.102533 153.610522,111.163401 148.174475,109.098035 C142.738428,107.032668 136.849466,106 130.507411,106 Z M204.872909,132.738422 C202.336087,132.738422 199.980502,133.151489 197.806083,133.977636 C195.631664,134.803782 193.751726,135.979435 192.166213,137.504629 C190.580699,139.029823 189.334957,140.880681 188.428949,143.05726 C187.522941,145.233839 187.069944,147.672524 187.069944,150.373388 C187.069944,153.074252 187.522941,155.536768 188.428949,157.761009 C189.334957,159.98525 190.580699,161.88377 192.166213,163.456627 C193.751726,165.029483 195.631664,166.244853 197.806083,167.102775 C199.980502,167.960697 202.336087,168.389651 204.872909,168.389651 C207.409731,168.389651 209.765316,167.960697 211.939734,167.102775 C214.114153,166.244853 216.001641,165.029483 217.602255,163.456627 C219.202869,161.88377 220.456161,159.98525 221.362169,157.761009 C222.268176,155.536768 222.721173,153.074252 222.721173,150.373388 C222.721173,147.672524 222.268176,145.233839 221.362169,143.05726 C220.456161,140.880681 219.202869,139.029823 217.602255,137.504629 C216.001641,135.979435 214.114153,134.803782 211.939734,133.977636 C209.765316,133.151489 207.409731,132.738422 204.872909,132.738422 Z" id="path-1"></path>
        <filter x="-2.0%" y="-2.0%" width="104.1%" height="104.1%" filterUnits="objectBoundingBox" id="filter-2">
            <feGaussianBlur stdDeviation="3" in="SourceAlpha" result="shadowBlurInner1"></feGaussianBlur>
            <feOffset dx="0" dy="3" in="shadowBlurInner1" result="shadowOffsetInner1"></feOffset>
            <feComposite in="shadowOffsetInner1" in2="SourceAlpha" operator="arithmetic" k2="-1" k3="1" result="shadowInnerInner1"></feComposite>
            <feColorMatrix values="0 0 0 0 0   0 0 0 0 0   0 0 0 0 0  0 0 0 0.5 0" type="matrix" in="shadowInnerInner1"></feColorMatrix>
        </filter>
    </defs>
    <g id="Logo-23-StandardSDK" stroke="none" stroke-width="1" fill="none" fill-rule="evenodd">
        <g id="Combined-Shape-Copy-2">
            <use fill="#FFC682" fill-rule="evenodd" xlink:href="#path-1"></use>
            <use fill="black" fill-opacity="1" filter="url(#filter-2)" xlink:href="#path-1"></use>
        </g>
    </g>
</svg>